<?xml version="1.0" encoding="UTF-8" standalone="no"?>
<!-- Created with Inkscape (http://www.inkscape.org/) -->

<svg
   version="1.1"
   id="svg1"
   width="196.05331"
   height="87.561523"
   viewBox="0 0 196.05331 87.561523"
   xml:space="preserve"
   xmlns="http://www.w3.org/2000/svg"
   xmlns:svg="http://www.w3.org/2000/svg"><defs
     id="defs1" /><g
     id="g47"
     transform="matrix(0.16382844,0,0,0.16382844,12.98612,121.77164)"
     style="fill:#00a400;fill-opacity:1;stroke-width:1.00105;stroke-dasharray:none"><path
       style="opacity:1;fill:#ffffff;fill-opacity:1;stroke:#ffffff;stroke-width:1.00105;stroke-dasharray:none;stroke-opacity:1"
       d="m 296.98781,-639.82236 -26.77272,-47.00791 c -5.41952,-9.51566 -14.81293,-24.70821 -22.84673,-32.1147 -9.08869,-8.37902 -22.87297,-17.91028 -41.1713,-21.741 -10.69252,-2.23846 -28.68199,-2.80457 -39.46579,-1.11074 -13.37736,2.10119 -31.67168,8.23886 -48.81357,24.86863 -7.84944,7.61494 -17.33135,22.71652 -22.801877,32.20296 l -153.740677,266.60176 c -5.470523,9.48644 -14.387417,24.99599 -17.291488,35.5285 -2.137744,7.75318 -3.613435,17.30839 -2.427444,27.34683 1.277829,10.81577 9.855765,26.73933 15.55848,36.08621 2.117227,3.47018 4.462366,7.16443 6.916742,10.77831 16.885219,24.86221 47.3150228,49.60204 91.391663,36.4781 0,0 40.903541,-14.56778 20.132108,-53.41305 0,0 -40.935907,-46.46597 -32.303623,-125.77507 0,0 42.188129,-173.57765 215.977606,-122.03272 10.49672,3.11327 27.79683,7.76127 38.55832,5.95416 14.17707,-2.38066 30.85951,-10.55606 31.2837,-35.78482 0.18363,-10.92176 -6.76388,-27.34979 -12.1834,-36.86545 z"
       id="path45" /><path
       id="path46"
       style="opacity:1;fill:#b0fc00;fill-opacity:0.931624;stroke:#fcbd2c;stroke-width:0"
       d="m 620.95354,-764.41758 c -43.99493,-0.003 -79.66126,35.86653 -79.66126,80.1143 0,44.24777 35.66633,80.11693 79.66126,80.11429 43.99028,-0.004 79.64935,-35.8712 79.64935,-80.11429 1.2e-4,-2.10719 -0.0824,-4.2101 -0.24662,-6.30396 -1.13043,-14.41454 -7.40959,-11.97375 -18.05732,-2.59413 -6.25844,5.51309 -14.4625,8.82655 -23.37457,8.82656 -19.52709,-0.003 -35.3565,-15.83206 -35.35997,-35.35997 -8e-5,-8.53997 3.02968,-16.38356 8.08085,-22.50257 10.38734,-12.58327 14.27513,-19.98108 -2.36336,-21.74089 -2.75967,-0.29188 -5.53946,-0.43925 -8.32836,-0.43934 z"
       transform="matrix(1.1880953,0,0,1.1880953,-555.50146,380.8746)" /><path
       style="opacity:1;fill:#ffffff;fill-opacity:1;stroke:#fff400;stroke-width:0;stroke-dasharray:none;stroke-opacity:1"
       d="m 406.93995,-34.029514 9.61012,16.973051 3.82151,6.52023 c 0.20755,0.354114 0.459,0.963623 0.53816,1.3663135 0.69992,3.5609124 2.61619,19.2002505 -16.53305,23.5772205 0,0 -5.52427,1.546796 -16.26346,0.839689 0,0 -3.53553,-0.53033 -6.09879,2.165514 0,0 -1.6106,2.147912 -3.80121,0.04035 -0.35067,-0.337374 -0.76436,-1.010363 -0.94167,-1.464058 -1.01754,-2.603592 -3.23977,-10.7819955 7.41594,-13.863793 0,0 2.58604,-0.8875631 6.51933,-0.5119127 0,0 2.85052,0.486136 6.49654,-2.49697078 C 397.625,-0.75 410.25,-10.75 401,-29.25 c 0,0 -0.86496,-1.470438 -0.5387,-2.91323 0.29003,-1.282547 2.35581,-2.638385 3.67002,-2.932926 0.95495,-0.214022 2.03102,-0.08675 2.80863,1.066606 z"
       id="path47"
       transform="matrix(6.1039463,0,0,6.1039463,-2122.3926,-321.00232)" /></g><path
     d="m 105.61914,38.430222 q -2.43333,0 -4.36666,-1.2 -1.93334,-1.23333 -3.06667,-3.29999 -1.1,-2.1 -1.1,-4.73333 0,-2.63333 1.2,-4.73333 1.23333,-2.1 3.3,-3.3 2.1,-1.23333 4.69999,-1.23333 2.6,0 4.66667,1.23333 2.06666,1.2 3.26666,3.3 1.23333,2.1 1.23333,4.73333 h -1.3 q 0,2.63333 -1.13333,4.73333 -1.1,2.06666 -3.03333,3.29999 -1.93333,1.2 -4.36666,1.2 z m 0.66666,-2.99999 q 1.7,0 3.03333,-0.8 1.33334,-0.83334 2.1,-2.23334 0.76667,-1.43333 0.76667,-3.19999 0,-1.8 -0.76667,-3.2 -0.76666,-1.43333 -2.1,-2.23333 -1.33333,-0.83333 -3.03333,-0.83333 -1.66666,0 -3.03333,0.83333 -1.33333,0.8 -2.13333,2.23333 -0.76666,1.4 -0.76666,3.2 0,1.76666 0.76666,3.19999 0.8,1.4 2.13333,2.23334 1.36667,0.8 3.03333,0.8 z m 7.46666,2.89999 q -0.73333,0 -1.23333,-0.46666 -0.46667,-0.5 -0.46667,-1.23334 v -5.09999 l 0.63334,-3.53333 2.76666,1.2 v 7.43332 q 0,0.73334 -0.5,1.23334 -0.46666,0.46666 -1.2,0.46666 z m 14.36663,0.1 q -2.5,0 -4.43333,-1.16666 -1.9,-1.2 -3,-3.26667 -1.1,-2.09999 -1.1,-4.79999 0,-2.73333 1.16667,-4.8 1.2,-2.1 3.26666,-3.26666 2.06667,-1.2 4.76667,-1.2 2.66666,0 4.73332,1.2 2.06667,1.16666 3.23334,3.26666 1.19999,2.06667 1.19999,4.8 h -1.96666 q 0,2.7 -1.03333,4.79999 -1,2.06667 -2.76667,3.26667 -1.76666,1.16666 -4.06666,1.16666 z m 0.6,7.43333 q -2.36666,0 -4.43333,-0.93333 -2.06666,-0.93334 -3.5,-2.73333 -0.43333,-0.56667 -0.33333,-1.16667 0.13333,-0.6 0.66667,-0.96667 0.6,-0.4 1.23333,-0.26666 0.66666,0.13333 1.06666,0.66666 0.9,1.13334 2.26667,1.76667 1.36666,0.63333 3.1,0.63333 1.59999,0 2.93333,-0.76666 1.36666,-0.76667 2.16666,-2.26667 0.8,-1.5 0.8,-3.66666 v -4.73333 l 1.1,-2.93333 2.16666,0.7 v 7.19999 q 0,2.63333 -1.16666,4.76666 -1.16667,2.16667 -3.26667,3.43333 -2.06666,1.26667 -4.79999,1.26667 z m 0.0667,-10.43332 q 1.73333,0 3.06666,-0.8 1.33333,-0.8 2.06666,-2.2 0.76667,-1.4 0.76667,-3.23333 0,-1.83333 -0.76667,-3.23333 -0.73333,-1.43333 -2.06666,-2.23333 -1.33333,-0.8 -3.06666,-0.8 -1.73334,0 -3.06667,0.8 -1.33333,0.8 -2.1,2.23333 -0.76666,1.4 -0.76666,3.23333 0,1.83333 0.76666,3.23333 0.76667,1.4 2.1,2.2 1.33333,0.8 3.06667,0.8 z m 15.86662,-8.53333 q 0,-2 0.96667,-3.56666 1,-1.6 2.66666,-2.53333 1.66667,-0.93334 3.66666,-0.93334 2,0 2.96667,0.66667 1,0.63333 0.76666,1.53333 -0.1,0.46667 -0.4,0.73333 -0.26666,0.23334 -0.63333,0.3 -0.36666,0.0667 -0.8,-0.0333 -2.13333,-0.43333 -3.83333,-0.0667 -1.7,0.36667 -2.69999,1.36667 -0.96667,1 -0.96667,2.53333 z m 0.0333,11.39999 q -0.79999,0 -1.23333,-0.4 -0.43333,-0.43333 -0.43333,-1.26667 v -14.89998 q 0,-0.8 0.43333,-1.23333 0.43334,-0.43334 1.23333,-0.43334 0.83334,0 1.23334,0.43334 0.43333,0.4 0.43333,1.23333 v 14.89998 q 0,0.8 -0.43333,1.23334 -0.4,0.43333 -1.23334,0.43333 z m 21.46662,0.13333 q -2.7,0 -4.76666,-1.16666 -2.06667,-1.2 -3.26666,-3.26667 -1.16667,-2.09999 -1.16667,-4.79999 0,-2.73333 1.16667,-4.8 1.19999,-2.1 3.26666,-3.26666 2.06666,-1.2 4.76666,-1.2 2.66667,0 4.73333,1.2 2.06666,1.16666 3.23333,3.26666 1.2,2.06667 1.2,4.8 0,2.7 -1.16667,4.79999 -1.16666,2.06667 -3.23333,3.26667 -2.06666,1.16666 -4.76666,1.16666 z m 0,-2.99999 q 1.73333,0 3.06667,-0.8 1.33333,-0.8 2.06666,-2.2 0.76667,-1.4 0.76667,-3.23333 0,-1.83333 -0.76667,-3.23333 -0.73333,-1.43333 -2.06666,-2.23333 -1.33334,-0.8 -3.06667,-0.8 -1.73333,0 -3.06666,0.8 -1.33333,0.8 -2.1,2.23333 -0.76667,1.4 -0.76667,3.23333 0,1.83333 0.76667,3.23333 0.76667,1.4 2.1,2.2 1.33333,0.8 3.06666,0.8 z"
     id="text47"
     style="font-weight:bold;font-size:33.3333px;font-family:Comfortaa;-inkscape-font-specification:'Comfortaa Bold';fill:#ffffff;stroke:#fff400;stroke-width:0"
     aria-label="agro " /><path
     d="m 106.1201,74.521642 q -1.03333,0 -1.6,-1.1 l -7.06666,-14.89998 q -0.26666,-0.56667 -0.0667,-1.1 0.23333,-0.56667 0.86666,-0.86667 0.56667,-0.3 1.13333,-0.1 0.6,0.2 0.9,0.76667 l 6.6,14.23332 h -1.6 l 6.53333,-14.23332 q 0.3,-0.56667 0.9,-0.76667 0.63333,-0.2 1.26666,0.1 0.6,0.26667 0.8,0.83334 0.2,0.56666 -0.0667,1.13333 l -7.06666,14.89998 q -0.5,1.1 -1.53333,1.1 z m 14.13333,0.0333 q -0.73333,0 -1.23333,-0.46667 -0.46667,-0.5 -0.46667,-1.23333 v -14.83332 q 0,-0.76667 0.46667,-1.23333 0.5,-0.46667 1.23333,-0.46667 0.76667,0 1.23333,0.46667 0.46667,0.46666 0.46667,1.23333 v 14.83332 q 0,0.73333 -0.46667,1.23333 -0.46666,0.46667 -1.23333,0.46667 z m 0,-21.19998 q -0.9,0 -1.56666,-0.63334 -0.63334,-0.66666 -0.63334,-1.56666 0,-0.9 0.63334,-1.53333 0.66666,-0.66667 1.56666,-0.66667 0.9,0 1.53333,0.66667 0.66667,0.63333 0.66667,1.53333 0,0.9 -0.66667,1.56666 -0.63333,0.63334 -1.53333,0.63334 z m 14.66666,21.33331 q -2.33333,0 -4.33333,-0.7 -1.96667,-0.73333 -3.06666,-1.83333 -0.5,-0.53333 -0.43334,-1.2 0.1,-0.7 0.66667,-1.13333 0.66666,-0.53334 1.3,-0.43334 0.66666,0.0667 1.13333,0.56667 0.56667,0.63333 1.8,1.2 1.26666,0.53333 2.8,0.53333 1.93333,0 2.93333,-0.63333 1.03333,-0.63333 1.06666,-1.63333 0.0333,-1 -0.96666,-1.73333 -0.96667,-0.73334 -3.56667,-1.2 -3.36666,-0.66667 -4.89999,-2 -1.5,-1.33333 -1.5,-3.26666 0,-1.7 1,-2.8 1,-1.13333 2.56666,-1.66667 1.56667,-0.56666 3.26667,-0.56666 2.19999,0 3.89999,0.7 1.7,0.7 2.7,1.93333 0.46667,0.53333 0.43333,1.13333 -0.0333,0.56667 -0.56666,0.96667 -0.53334,0.36666 -1.26667,0.23333 -0.73333,-0.13333 -1.23333,-0.6 -0.83333,-0.8 -1.8,-1.1 -0.96667,-0.3 -2.23333,-0.3 -1.46667,0 -2.5,0.5 -1,0.5 -1,1.46667 0,0.6 0.3,1.09999 0.33333,0.46667 1.26667,0.86667 0.93333,0.36667 2.73333,0.73333 2.5,0.5 3.93333,1.26667 1.46666,0.76666 2.1,1.8 0.63333,1 0.63333,2.33333 0,1.53333 -0.83333,2.76666 -0.8,1.23333 -2.4,1.96667 -1.56667,0.73333 -3.93333,0.73333 z m 13.49996,-0.13333 q -0.73333,0 -1.23333,-0.46667 -0.46667,-0.5 -0.46667,-1.23333 v -14.83332 q 0,-0.76667 0.46667,-1.23333 0.5,-0.46667 1.23333,-0.46667 0.76667,0 1.23333,0.46667 0.46667,0.46666 0.46667,1.23333 v 14.83332 q 0,0.73333 -0.46667,1.23333 -0.46666,0.46667 -1.23333,0.46667 z m 0,-21.19998 q -0.9,0 -1.56667,-0.63334 -0.63333,-0.66666 -0.63333,-1.56666 0,-0.9 0.63333,-1.53333 0.66667,-0.66667 1.56667,-0.66667 0.9,0 1.53333,0.66667 0.66667,0.63333 0.66667,1.53333 0,0.9 -0.66667,1.56666 -0.63333,0.63334 -1.53333,0.63334 z m 16.29999,21.33331 q -2.7,0 -4.76666,-1.16667 -2.06667,-1.19999 -3.26667,-3.26666 -1.16666,-2.1 -1.16666,-4.79999 0,-2.73334 1.16666,-4.8 1.2,-2.1 3.26667,-3.26666 2.06666,-1.2 4.76666,-1.2 2.66666,0 4.73333,1.2 2.06666,1.16666 3.23333,3.26666 1.2,2.06666 1.2,4.8 0,2.69999 -1.16667,4.79999 -1.16666,2.06667 -3.23333,3.26666 -2.06666,1.16667 -4.76666,1.16667 z m 0,-3 q 1.73333,0 3.06666,-0.8 1.33333,-0.8 2.06667,-2.19999 0.76666,-1.4 0.76666,-3.23333 0,-1.83334 -0.76666,-3.23334 -0.73334,-1.43333 -2.06667,-2.23333 -1.33333,-0.8 -3.06666,-0.8 -1.73333,0 -3.06667,0.8 -1.33333,0.8 -2.09999,2.23333 -0.76667,1.4 -0.76667,3.23334 0,1.83333 0.76667,3.23333 0.76666,1.39999 2.09999,2.19999 1.33334,0.8 3.06667,0.8 z m 29.63328,2.9 q -0.73333,0 -1.23333,-0.46667 -0.46667,-0.5 -0.46667,-1.23333 v -8.19999 q 0,-1.9 -0.7,-3.1 -0.7,-1.2 -1.9,-1.76666 -1.16666,-0.6 -2.69999,-0.6 -1.4,0 -2.53334,0.56666 -1.13333,0.56667 -1.79999,1.53334 -0.66667,0.93333 -0.66667,2.16666 h -2.1 q 0,-2.1 1,-3.73333 1.03333,-1.66666 2.8,-2.63333 1.76666,-0.96667 3.96666,-0.96667 2.3,0 4.1,1 1.83333,0.96667 2.86666,2.86667 1.06667,1.9 1.06667,4.66666 v 8.19999 q 0,0.73333 -0.5,1.23333 -0.46667,0.46667 -1.2,0.46667 z m -13.69999,0 q -0.73333,0 -1.23333,-0.46667 -0.46667,-0.5 -0.46667,-1.23333 v -14.86665 q 0,-0.76667 0.46667,-1.23333 0.5,-0.46667 1.23333,-0.46667 0.76667,0 1.23333,0.46667 0.46667,0.46666 0.46667,1.23333 v 14.86665 q 0,0.73333 -0.46667,1.23333 -0.46666,0.46667 -1.23333,0.46667 z"
     id="text48"
     style="font-weight:bold;font-size:33.3333px;line-height:100;font-family:Comfortaa;-inkscape-font-specification:'Comfortaa Bold';fill:#ffffff;stroke:#fff400;stroke-width:0"
     aria-label="vision" /></svg>
