<?xml version="1.0" encoding="UTF-8" standalone="no"?>
<!-- Created with Inkscape (http://www.inkscape.org/) -->

<svg
   version="1.1"
   id="svg1"
   width="86.511597"
   height="87.478699"
   viewBox="0 0 86.511597 87.478699"
   xml:space="preserve"
   xmlns="http://www.w3.org/2000/svg"
   xmlns:svg="http://www.w3.org/2000/svg"><defs
     id="defs1" /><g
     id="g56"
     transform="matrix(0.16382844,0,0,0.16382844,12.904035,391.6889)"
     style="fill:#00a400;fill-opacity:1;stroke-width:1.00105;stroke-dasharray:none"><path
       style="opacity:1;fill:#0d1d12;fill-opacity:1;stroke:#ffffff;stroke-width:0;stroke-dasharray:none;stroke-opacity:1"
       d="m 296.98781,-639.82236 -26.77272,-47.00791 c -5.41952,-9.51566 -14.81293,-24.70821 -22.84673,-32.1147 -9.08869,-8.37902 -22.87297,-17.91028 -41.1713,-21.741 -10.69252,-2.23846 -28.68199,-2.80457 -39.46579,-1.11074 -13.37736,2.10119 -31.67168,8.23886 -48.81357,24.86863 -7.84944,7.61494 -17.33135,22.71652 -22.801877,32.20296 l -153.740677,266.60176 c -5.470523,9.48644 -14.387417,24.99599 -17.291488,35.5285 -2.137744,7.75318 -3.613435,17.30839 -2.427444,27.34683 1.277829,10.81577 9.855765,26.73933 15.55848,36.08621 2.117227,3.47018 4.462366,7.16443 6.916742,10.77831 16.885219,24.86221 47.3150228,49.60204 91.391663,36.4781 0,0 40.903541,-14.56778 20.132108,-53.41305 0,0 -40.935907,-46.46597 -32.303623,-125.77507 0,0 42.188129,-173.57765 215.977606,-122.03272 10.49672,3.11327 27.79683,7.76127 38.55832,5.95416 14.17707,-2.38066 30.85951,-10.55606 31.2837,-35.78482 0.18363,-10.92176 -6.76388,-27.34979 -12.1834,-36.86545 z"
       id="path54"
       transform="translate(0,-1648.0657)" /><path
       id="path55"
       style="opacity:1;fill:#92d100;fill-opacity:0.931624;stroke:#fcbd2c;stroke-width:0"
       d="m 620.95354,-764.41758 c -43.99493,-0.003 -79.66126,35.86653 -79.66126,80.1143 0,44.24777 35.66633,80.11693 79.66126,80.11429 43.99028,-0.004 79.64935,-35.8712 79.64935,-80.11429 1.2e-4,-2.10719 -0.0824,-4.2101 -0.24662,-6.30396 -1.13043,-14.41454 -7.40959,-11.97375 -18.05732,-2.59413 -6.25844,5.51309 -14.4625,8.82655 -23.37457,8.82656 -19.52709,-0.003 -35.3565,-15.83206 -35.35997,-35.35997 -8e-5,-8.53997 3.02968,-16.38356 8.08085,-22.50257 10.38734,-12.58327 14.27513,-19.98108 -2.36336,-21.74089 -2.75967,-0.29188 -5.53946,-0.43925 -8.32836,-0.43934 z"
       transform="matrix(1.1880953,0,0,1.1880953,-555.50146,-1267.1908)" /><path
       style="opacity:1;fill:#0d1d12;fill-opacity:1;stroke:#fff400;stroke-width:0;stroke-dasharray:none;stroke-opacity:1"
       d="m 406.93995,-34.029514 9.61012,16.973051 3.82151,6.52023 c 0.20755,0.354114 0.459,0.963623 0.53816,1.3663135 0.69992,3.5609124 2.61619,19.2002505 -16.53305,23.5772205 0,0 -5.52427,1.546796 -16.26346,0.839689 0,0 -3.53553,-0.53033 -6.09879,2.165514 0,0 -1.6106,2.147912 -3.80121,0.04035 -0.35067,-0.337374 -0.76436,-1.010363 -0.94167,-1.464058 -1.01754,-2.603592 -3.23977,-10.7819955 7.41594,-13.863793 0,0 2.58604,-0.8875631 6.51933,-0.5119127 0,0 2.85052,0.486136 6.49654,-2.49697078 C 397.625,-0.75 410.25,-10.75 401,-29.25 c 0,0 -0.86496,-1.470438 -0.5387,-2.91323 0.29003,-1.282547 2.35581,-2.638385 3.67002,-2.932926 0.95495,-0.214022 2.03102,-0.08675 2.80863,1.066606 z"
       id="path56"
       transform="matrix(6.1039463,0,0,6.1039463,-2122.3926,-1969.0683)" /></g></svg>
